<svg xmlns="http://www.w3.org/2000/svg" viewBox="0 0 1400 900" role="img" aria-labelledby="title desc">
  <title id="title">Számlaalapú progresszív adózás társadalmi hatása</title>
  <desc id="desc">A diagram azt mutatja, hogyan csökkenti a NAV által kiajánlott progresszív számlaalapú adózás az adminisztratív stresszt, hogyan védi a kényszervállalkozót, és hogyan teszi ellenőrizhetővé a foglalkoztatót.</desc>
  <defs>
    <marker id="arrowBlue" viewBox="0 0 12 12" refX="10" refY="6" markerWidth="10" markerHeight="10" orient="auto">
      <path d="M2 2 L10 6 L2 10 Z" fill="#2563eb"/>
    </marker>
    <marker id="arrowGreen" viewBox="0 0 12 12" refX="10" refY="6" markerWidth="10" markerHeight="10" orient="auto">
      <path d="M2 2 L10 6 L2 10 Z" fill="#16a34a"/>
    </marker>
    <filter id="shadow" x="-20%" y="-20%" width="140%" height="140%">
      <feDropShadow dx="0" dy="8" stdDeviation="8" flood-color="#0f172a" flood-opacity="0.12"/>
    </filter>
    <linearGradient id="health" x1="0" x2="1" y1="0" y2="1">
      <stop offset="0" stop-color="#dcfce7"/>
      <stop offset="1" stop-color="#dbeafe"/>
    </linearGradient>
    <style>
      .bg { fill: #f8fafc; }
      .title { font: 800 34px Arial, sans-serif; fill: #0f172a; }
      .subtitle { font: 400 18px Arial, sans-serif; fill: #334155; }
      .card { fill: #ffffff; stroke: #d8dee9; stroke-width: 1.5; filter: url(#shadow); }
      .blue-card { fill: #eff6ff; stroke: #93c5fd; }
      .green-card { fill: #f0fdf4; stroke: #86efac; }
      .red-card { fill: #fff1f2; stroke: #fecdd3; }
      .section { font: 800 20px Arial, sans-serif; fill: #0f172a; }
      .label { font: 800 17px Arial, sans-serif; fill: #0f172a; }
      .text { font: 400 15px Arial, sans-serif; fill: #334155; }
      .small { font: 400 13px Arial, sans-serif; fill: #475569; }
      .metric { font: 800 18px Arial, sans-serif; fill: #0f172a; }
      .arrow-blue { fill: none; stroke: #2563eb; stroke-width: 4; stroke-linecap: round; marker-end: url(#arrowBlue); }
      .arrow-green { fill: none; stroke: #16a34a; stroke-width: 4; stroke-linecap: round; marker-end: url(#arrowGreen); }
    </style>
  </defs>

  <rect class="bg" width="1400" height="900"/>

  <text class="title" x="70" y="70">Új adórendszer-egészség</text>
  <text class="subtitle" x="70" y="105">Kevesebb adminisztratív stressz, tisztább felelősség, stabilabb adóbevétel.</text>

  <rect class="card blue-card" x="60" y="145" width="360" height="575" rx="18"/>
  <text class="section" x="90" y="185">1. Számlaalapú progresszív adó</text>
  <text class="text" x="90" y="215">A NAV a számlák alapján kiajánlja</text>
  <text class="text" x="90" y="238">a bevallást és a fizetendő adót.</text>

  <rect class="card" x="90" y="270" width="300" height="68" rx="12"/>
  <text class="label" x="112" y="298">Adókulcs: 9-35%</text>
  <text class="small" x="112" y="321">progresszív, jövedelemhez igazodik</text>

  <rect class="card" x="90" y="360" width="300" height="72" rx="12"/>
  <text class="label" x="112" y="389">Alap számlaalapú mód</text>
  <text class="small" x="112" y="413">kiállított számlák után adó + járulék</text>

  <rect class="card" x="90" y="452" width="300" height="72" rx="12"/>
  <text class="label" x="112" y="481">Átalányadó</text>
  <text class="small" x="112" y="505">költséghányad levonása után progresszív adó</text>

  <rect class="card" x="90" y="544" width="300" height="72" rx="12"/>
  <text class="label" x="112" y="573">VSZJA</text>
  <text class="small" x="112" y="597">költségszámlák, automatikus / AI kategorizálás</text>

  <rect class="card" x="90" y="636" width="300" height="56" rx="12"/>
  <text class="small" x="112" y="658">Közös: MNB árfolyam +</text>
  <text class="small" x="112" y="678">90 napon belüli számlakiállítás</text>

  <path class="arrow-blue" d="M420 432 C462 432 482 432 525 432"/>

  <rect class="card green-card" x="525" y="145" width="370" height="575" rx="18"/>
  <text class="section" x="555" y="185">2. Kényszervállalkozó védelme</text>

  <rect class="card" x="555" y="230" width="310" height="88" rx="12"/>
  <text class="label" x="577" y="260">A dolgozó oldala rendezett</text>
  <text class="small" x="577" y="284">befizeti az alkalmazotti terheknek megfelelő</text>
  <text class="small" x="577" y="304">adót és járulékot a NAV-kiajánlás alapján</text>

  <rect class="card" x="555" y="350" width="310" height="88" rx="12"/>
  <text class="label" x="577" y="380">Kevesebb kiszolgáltatottság</text>
  <text class="small" x="577" y="404">nem a kényszerből számlázó dolgozó</text>
  <text class="small" x="577" y="424">lesz az elsődleges ellenőrzési célpont</text>

  <rect class="card" x="555" y="470" width="310" height="96" rx="12"/>
  <text class="label" x="577" y="500">A foglalkoztató ellenőrizhető</text>
  <text class="small" x="577" y="524">hiányzó bejelentés</text>
  <text class="small" x="577" y="544">meg nem fizetett munkáltatói bérjárulék</text>

  <rect class="card" x="555" y="598" width="310" height="78" rx="12"/>
  <text class="label" x="577" y="628">Tiszta felelősségi lánc</text>
  <text class="small" x="577" y="652">dolgozó fizetett, foglalkoztató vizsgálható</text>

  <path class="arrow-green" d="M895 432 C938 432 958 432 1000 432"/>

  <rect class="card" x="1000" y="145" width="340" height="575" rx="18" fill="url(#health)" stroke="#86efac" filter="url(#shadow)"/>
  <text class="section" x="1030" y="185">3. Társadalmi és adózási hatás</text>

  <rect class="card" x="1030" y="230" width="280" height="60" rx="12"/>
  <text class="metric" x="1052" y="267">Kevesebb admin stressz</text>

  <rect class="card" x="1030" y="312" width="280" height="60" rx="12"/>
  <text class="metric" x="1052" y="349">Kevesebb jogvita</text>

  <rect class="card" x="1030" y="394" width="280" height="60" rx="12"/>
  <text class="metric" x="1052" y="431">Nagyobb bizalom</text>

  <rect class="card" x="1030" y="476" width="280" height="60" rx="12"/>
  <text class="metric" x="1052" y="513">Több legális munka</text>

  <rect class="card" x="1030" y="558" width="280" height="60" rx="12"/>
  <text class="metric" x="1052" y="595">Stabilabb adóbevétel</text>

  <rect class="card" x="1030" y="640" width="280" height="60" rx="12"/>
  <text class="metric" x="1052" y="677">Egészségesebb társadalom</text>

  <rect class="card red-card" x="70" y="765" width="1260" height="72" rx="16"/>
  <text class="section" x="100" y="797">Mit vált ki?</text>
  <text class="text" x="100" y="823">bizonytalan jogviszony → félelem a NAV-tól → adminisztratív stressz → munkapiaci inaktivitás → szűkülő adóalap</text>
</svg>
